<?xml version="1.0" encoding="utf-8"?>
<!-- Generator: Adobe Illustrator 16.0.3, SVG Export Plug-In . SVG Version: 6.00 Build 0)  -->
<!DOCTYPE svg PUBLIC "-//W3C//DTD SVG 1.1//EN" "http://www.w3.org/Graphics/SVG/1.1/DTD/svg11.dtd">
<svg version="1.1" id="Layer_1" xmlns:sketch="http://www.bohemiancoding.com/sketch/ns"
	 xmlns="http://www.w3.org/2000/svg" xmlns:xlink="http://www.w3.org/1999/xlink" x="0px" y="0px" width="141px" height="141px"
	 viewBox="0 0 141 141" enable-background="new 0 0 141 141" xml:space="preserve">
<title>Oval 1 + CIRQLE</title>
<desc>Created with Sketch.</desc>
<g>
	<path d="M13.827,53.856c1.697,0,3.166,0.206,4.41,0.61c1.24,0.411,2.315,0.984,3.22,1.722c1.784,1.439,2.941,3.464,3.478,6.063
		l-5.34,0.971c-0.452-1.44-1.154-2.604-2.097-3.495c-0.95-0.894-2.126-1.34-3.539-1.34c-1.927,0-3.478,0.808-4.666,2.419
		c-1.272,1.755-1.905,4.178-1.905,7.271c0,3.095,0.565,5.51,1.696,7.249s2.674,2.612,4.624,2.612c1.951,0,3.416-0.477,4.408-1.424
		c0.984-0.944,1.48-2.169,1.48-3.664h5.386c0,3.077-0.984,5.457-2.949,7.138c-1.964,1.685-4.656,2.526-8.074,2.526
		c-3.647,0-6.548-1.27-8.693-3.818C3.086,76.096,2,72.561,2,68.098c0-4.52,1.119-8.058,3.351-10.595
		C7.5,55.069,10.324,53.856,13.827,53.856z"/>
	<path d="M30.832,54.408h4.998v27.513h-4.998V54.408z"/>
	<path d="M64.151,62.839c0,1.95-0.552,3.62-1.653,5.006c-1.1,1.389-2.686,2.351-4.748,2.882l7.378,11.194h-6.528l-6.063-10.73
		h-3.814v10.73h-5.006V54.408h10.173c3.253,0,5.78,0.775,7.588,2.33C63.265,58.233,64.151,60.27,64.151,62.839z M53.426,67.845
		c1.833,0,3.22-0.415,4.154-1.249c0.929-0.834,1.396-1.932,1.396-3.307c0-1.375-0.419-2.472-1.271-3.307
		c-0.846-0.834-2.123-1.249-3.816-1.249h-5.167v9.111H53.426z"/>
	<path d="M93.703,88.787c-1.16,0.509-2.422,0.762-3.773,0.762c-2.746,0-5.061-1.431-6.957-4.279l-1.822-2.756
		c-3.648-0.062-6.559-1.301-8.736-3.73c-2.233-2.572-3.346-6.121-3.346-10.641c0-4.692,1.154-8.283,3.473-10.771
		c2.178-2.342,5.172-3.516,8.99-3.516c3.783,0,6.799,1.202,9.027,3.602c2.314,2.488,3.477,6.048,3.477,10.685
		c0,3.816-0.734,6.859-2.207,9.135c-1.469,2.275-3.445,3.806-5.934,4.598l0.672,1.064c0.682,1.046,1.686,1.596,3.016,1.654
		c1.215,0,2.58-0.327,4.113-0.977v5.17H93.703z M88.867,68.203c0-3.153-0.658-5.583-1.969-7.292
		c-1.314-1.713-3.084-2.566-5.32-2.566c-2.234,0-4.016,0.857-5.34,2.566c-1.336,1.713-1.996,4.143-1.996,7.292
		c0,3.148,0.66,5.566,1.99,7.247c1.326,1.688,3.111,2.526,5.338,2.526c2.238,0,4.01-0.839,5.324-2.526
		C88.209,73.774,88.867,71.355,88.867,68.203z"/>
	<path d="M105.104,77.553h11.322v4.368h-16.324V54.408h5.006v23.145H105.104z"/>
	<path d="M120.998,54.408h17.725v4.326H126v7.25h11.914v4.327H126v7.248h12.723v4.363h-17.725V54.408z"/>
</g>
<rect x="2.202" y="93.467" width="137.798" height="3.938"/>
</svg>
