<svg width="141" height="141" viewBox="0 0 141 141" xmlns="http://www.w3.org/2000/svg"><title>Oval 1 + CIRQLE</title><desc>Created with Sketch.</desc><g transform="translate(3 3)" fill="none"><circle stroke="#000" stroke-width="6" cx="67.5" cy="67.5" r="67.5"/><path d="M28.056 77.188c-1.232 0-2.376-.224-3.432-.672-1.056-.448-1.968-1.06-2.736-1.836-.768-.776-1.368-1.692-1.8-2.748-.432-1.056-.648-2.184-.648-3.384V68.5c0-1.2.216-2.324.648-3.372.432-1.048 1.032-1.968 1.8-2.76.768-.792 1.688-1.416 2.76-1.872 1.072-.456 2.256-.684 3.552-.684.784 0 1.5.064 2.148.192.648.128 1.236.304 1.764.528.528.224 1.016.496 1.464.816.448.32.864.672 1.248 1.056l-2.352 2.712c-.656-.592-1.324-1.056-2.004-1.392-.68-.336-1.444-.504-2.292-.504-.704 0-1.356.136-1.956.408-.6.272-1.116.648-1.548 1.128-.432.48-.768 1.036-1.008 1.668-.24.632-.36 1.308-.36 2.028v.048c0 .72.12 1.4.36 2.04.24.64.572 1.2.996 1.68.424.48.936.86 1.536 1.14.6.28 1.26.42 1.98.42.96 0 1.772-.176 2.436-.528.664-.352 1.324-.832 1.98-1.44l2.352 2.376c-.432.464-.88.88-1.344 1.248-.464.368-.972.684-1.524.948-.552.264-1.156.464-1.812.6-.656.136-1.392.204-2.208.204zM38.764 60.1h3.696v16.8h-3.696V60.1zm8.596 0h7.68c2.128 0 3.76.568 4.896 1.704.96.96 1.44 2.24 1.44 3.84v.048c0 1.36-.332 2.468-.996 3.324-.664.856-1.532 1.484-2.604 1.884l4.104 6h-4.32l-3.6-5.376h-2.904V76.9H47.36V60.1zm7.44 8.16c.912 0 1.612-.216 2.1-.648.488-.432.732-1.008.732-1.728v-.048c0-.8-.256-1.4-.768-1.8-.512-.4-1.224-.6-2.136-.6h-3.672v4.824H54.8zm25.612 9.144l-1.848-1.656c-.72.464-1.496.82-2.328 1.068-.832.248-1.72.372-2.664.372-1.296 0-2.488-.228-3.576-.684-1.088-.456-2.028-1.072-2.82-1.848-.792-.776-1.408-1.688-1.848-2.736-.44-1.048-.66-2.172-.66-3.372V68.5c0-1.2.224-2.324.672-3.372.448-1.048 1.068-1.968 1.86-2.76.792-.792 1.736-1.416 2.832-1.872 1.096-.456 2.292-.684 3.588-.684 1.296 0 2.488.228 3.576.684 1.088.456 2.028 1.072 2.82 1.848.792.776 1.408 1.688 1.848 2.736.44 1.048.66 2.172.66 3.372v.048c0 .896-.132 1.748-.396 2.556s-.628 1.564-1.092 2.268l1.728 1.464-2.352 2.616zM73.62 73.78c.848 0 1.584-.152 2.208-.456l-2.736-2.328 2.352-2.64 2.76 2.496c.304-.704.456-1.472.456-2.304V68.5c0-.72-.124-1.4-.372-2.04-.248-.64-.6-1.2-1.056-1.68-.456-.48-.996-.86-1.62-1.14-.624-.28-1.304-.42-2.04-.42-.752 0-1.436.136-2.052.408-.616.272-1.144.648-1.584 1.128-.44.48-.784 1.036-1.032 1.668-.248.632-.372 1.308-.372 2.028v.048c0 .72.124 1.4.372 2.04.248.64.6 1.2 1.056 1.68.456.48.992.86 1.608 1.14.616.28 1.3.42 2.052.42zM86.512 60.1h3.696v13.44h8.376v3.36H86.512V60.1zm15.556 0h12.672v3.288h-9v3.408h7.92v3.288h-7.92v3.528h9.12V76.9h-12.792V60.1z" fill="#000"/></g></svg>